<svg xmlns="http://www.w3.org/2000/svg" viewBox="0 0 64 64" width="256" height="256">
<circle cx="32" cy="32" r="28.0" fill="none" stroke="#1F3864" stroke-width="1.5"/>
<circle cx="32" cy="32" r="27.2" fill="none" stroke="#1F3864" stroke-width="0.6000000000000001" opacity="0.35"/>
<line x1="32.000" y1="7.700" x2="32.000" y2="4.000" stroke="#1F3864" stroke-width="0.8250000000000001" opacity="0.75"/>
<line x1="38.600" y1="7.369" x2="39.247" y2="4.954" stroke="#1F3864" stroke-width="0.8250000000000001" opacity="0.45"/>
<line x1="44.750" y1="9.916" x2="46.000" y2="7.751" stroke="#1F3864" stroke-width="0.8250000000000001" opacity="0.45"/>
<line x1="50.031" y1="13.969" x2="51.799" y2="12.201" stroke="#1F3864" stroke-width="0.8250000000000001" opacity="0.45"/>
<line x1="54.084" y1="19.250" x2="56.249" y2="18.000" stroke="#1F3864" stroke-width="0.8250000000000001" opacity="0.45"/>
<line x1="56.631" y1="25.400" x2="59.046" y2="24.753" stroke="#1F3864" stroke-width="0.8250000000000001" opacity="0.45"/>
<line x1="56.300" y1="32.000" x2="60.000" y2="32.000" stroke="#1F3864" stroke-width="0.8250000000000001" opacity="0.75"/>
<line x1="56.631" y1="38.600" x2="59.046" y2="39.247" stroke="#1F3864" stroke-width="0.8250000000000001" opacity="0.45"/>
<line x1="54.084" y1="44.750" x2="56.249" y2="46.000" stroke="#1F3864" stroke-width="0.8250000000000001" opacity="0.45"/>
<line x1="50.031" y1="50.031" x2="51.799" y2="51.799" stroke="#1F3864" stroke-width="0.8250000000000001" opacity="0.45"/>
<line x1="44.750" y1="54.084" x2="46.000" y2="56.249" stroke="#1F3864" stroke-width="0.8250000000000001" opacity="0.45"/>
<line x1="38.600" y1="56.631" x2="39.247" y2="59.046" stroke="#1F3864" stroke-width="0.8250000000000001" opacity="0.45"/>
<line x1="32.000" y1="56.300" x2="32.000" y2="60.000" stroke="#1F3864" stroke-width="0.8250000000000001" opacity="0.75"/>
<line x1="25.400" y1="56.631" x2="24.753" y2="59.046" stroke="#1F3864" stroke-width="0.8250000000000001" opacity="0.45"/>
<line x1="19.250" y1="54.084" x2="18.000" y2="56.249" stroke="#1F3864" stroke-width="0.8250000000000001" opacity="0.45"/>
<line x1="13.969" y1="50.031" x2="12.201" y2="51.799" stroke="#1F3864" stroke-width="0.8250000000000001" opacity="0.45"/>
<line x1="9.916" y1="44.750" x2="7.751" y2="46.000" stroke="#1F3864" stroke-width="0.8250000000000001" opacity="0.45"/>
<line x1="7.369" y1="38.600" x2="4.954" y2="39.247" stroke="#1F3864" stroke-width="0.8250000000000001" opacity="0.45"/>
<line x1="7.700" y1="32.000" x2="4.000" y2="32.000" stroke="#1F3864" stroke-width="0.8250000000000001" opacity="0.75"/>
<line x1="7.369" y1="25.400" x2="4.954" y2="24.753" stroke="#1F3864" stroke-width="0.8250000000000001" opacity="0.45"/>
<line x1="9.916" y1="19.250" x2="7.751" y2="18.000" stroke="#1F3864" stroke-width="0.8250000000000001" opacity="0.45"/>
<line x1="13.969" y1="13.969" x2="12.201" y2="12.201" stroke="#1F3864" stroke-width="0.8250000000000001" opacity="0.45"/>
<line x1="19.250" y1="9.916" x2="18.000" y2="7.751" stroke="#1F3864" stroke-width="0.8250000000000001" opacity="0.45"/>
<line x1="25.400" y1="7.369" x2="24.753" y2="4.954" stroke="#1F3864" stroke-width="0.8250000000000001" opacity="0.45"/>
<line x1="32.000" y1="8.000" x2="32.000" y2="3.000" stroke="#B88A5C" stroke-width="1.4249999999999998" stroke-linecap="round" opacity="0.95"/>
<line x1="56.000" y1="32.000" x2="61.000" y2="32.000" stroke="#B88A5C" stroke-width="1.4249999999999998" stroke-linecap="round" opacity="0.95"/>
<line x1="32.000" y1="56.000" x2="32.000" y2="61.000" stroke="#B88A5C" stroke-width="1.4249999999999998" stroke-linecap="round" opacity="0.95"/>
<line x1="8.000" y1="32.000" x2="3.000" y2="32.000" stroke="#B88A5C" stroke-width="1.4249999999999998" stroke-linecap="round" opacity="0.95"/>
<circle cx="32" cy="4.6" r="3.2" fill="#B88A5C" opacity="0.12"/>
<circle cx="32" cy="4.6" r="1.8" fill="#B88A5C" opacity="0.30"/>
<circle cx="32" cy="4.6" r="1.05" fill="#1F3864"/>
<path d="M 54.772 47.945 C 58.772 49.145, 63.272 54.745, 54.500 47.500" fill="none" stroke="#B88A5C" stroke-width="1.4249999999999998" stroke-linecap="round" opacity="0.95"/>
<circle cx="54.5" cy="47.5" r="1.15" fill="#1F3864"/>
<circle cx="32" cy="32" r="1.4" fill="#B88A5C"/>
<circle cx="32" cy="32" r="0.55" fill="#1F3864"/>
</svg>