<svg xmlns="http://www.w3.org/2000/svg" viewBox="0 0 433.39 216.00" width="433" height="216">
<g transform="translate(156.69714285714286,14) scale(1.875)">
<circle cx="32" cy="32" r="28.0" fill="none" stroke="#F5F0E6" stroke-width="1.5"/>
<circle cx="32" cy="32" r="27.2" fill="none" stroke="#F5F0E6" stroke-width="0.6000000000000001" opacity="0.35"/>
<line x1="32.000" y1="7.700" x2="32.000" y2="4.000" stroke="#F5F0E6" stroke-width="0.8250000000000001" opacity="0.75"/>
<line x1="38.600" y1="7.369" x2="39.247" y2="4.954" stroke="#F5F0E6" stroke-width="0.8250000000000001" opacity="0.45"/>
<line x1="44.750" y1="9.916" x2="46.000" y2="7.751" stroke="#F5F0E6" stroke-width="0.8250000000000001" opacity="0.45"/>
<line x1="50.031" y1="13.969" x2="51.799" y2="12.201" stroke="#F5F0E6" stroke-width="0.8250000000000001" opacity="0.45"/>
<line x1="54.084" y1="19.250" x2="56.249" y2="18.000" stroke="#F5F0E6" stroke-width="0.8250000000000001" opacity="0.45"/>
<line x1="56.631" y1="25.400" x2="59.046" y2="24.753" stroke="#F5F0E6" stroke-width="0.8250000000000001" opacity="0.45"/>
<line x1="56.300" y1="32.000" x2="60.000" y2="32.000" stroke="#F5F0E6" stroke-width="0.8250000000000001" opacity="0.75"/>
<line x1="56.631" y1="38.600" x2="59.046" y2="39.247" stroke="#F5F0E6" stroke-width="0.8250000000000001" opacity="0.45"/>
<line x1="54.084" y1="44.750" x2="56.249" y2="46.000" stroke="#F5F0E6" stroke-width="0.8250000000000001" opacity="0.45"/>
<line x1="50.031" y1="50.031" x2="51.799" y2="51.799" stroke="#F5F0E6" stroke-width="0.8250000000000001" opacity="0.45"/>
<line x1="44.750" y1="54.084" x2="46.000" y2="56.249" stroke="#F5F0E6" stroke-width="0.8250000000000001" opacity="0.45"/>
<line x1="38.600" y1="56.631" x2="39.247" y2="59.046" stroke="#F5F0E6" stroke-width="0.8250000000000001" opacity="0.45"/>
<line x1="32.000" y1="56.300" x2="32.000" y2="60.000" stroke="#F5F0E6" stroke-width="0.8250000000000001" opacity="0.75"/>
<line x1="25.400" y1="56.631" x2="24.753" y2="59.046" stroke="#F5F0E6" stroke-width="0.8250000000000001" opacity="0.45"/>
<line x1="19.250" y1="54.084" x2="18.000" y2="56.249" stroke="#F5F0E6" stroke-width="0.8250000000000001" opacity="0.45"/>
<line x1="13.969" y1="50.031" x2="12.201" y2="51.799" stroke="#F5F0E6" stroke-width="0.8250000000000001" opacity="0.45"/>
<line x1="9.916" y1="44.750" x2="7.751" y2="46.000" stroke="#F5F0E6" stroke-width="0.8250000000000001" opacity="0.45"/>
<line x1="7.369" y1="38.600" x2="4.954" y2="39.247" stroke="#F5F0E6" stroke-width="0.8250000000000001" opacity="0.45"/>
<line x1="7.700" y1="32.000" x2="4.000" y2="32.000" stroke="#F5F0E6" stroke-width="0.8250000000000001" opacity="0.75"/>
<line x1="7.369" y1="25.400" x2="4.954" y2="24.753" stroke="#F5F0E6" stroke-width="0.8250000000000001" opacity="0.45"/>
<line x1="9.916" y1="19.250" x2="7.751" y2="18.000" stroke="#F5F0E6" stroke-width="0.8250000000000001" opacity="0.45"/>
<line x1="13.969" y1="13.969" x2="12.201" y2="12.201" stroke="#F5F0E6" stroke-width="0.8250000000000001" opacity="0.45"/>
<line x1="19.250" y1="9.916" x2="18.000" y2="7.751" stroke="#F5F0E6" stroke-width="0.8250000000000001" opacity="0.45"/>
<line x1="25.400" y1="7.369" x2="24.753" y2="4.954" stroke="#F5F0E6" stroke-width="0.8250000000000001" opacity="0.45"/>
<line x1="32.000" y1="8.000" x2="32.000" y2="3.000" stroke="#D4A574" stroke-width="1.4249999999999998" stroke-linecap="round" opacity="0.95"/>
<line x1="56.000" y1="32.000" x2="61.000" y2="32.000" stroke="#D4A574" stroke-width="1.4249999999999998" stroke-linecap="round" opacity="0.95"/>
<line x1="32.000" y1="56.000" x2="32.000" y2="61.000" stroke="#D4A574" stroke-width="1.4249999999999998" stroke-linecap="round" opacity="0.95"/>
<line x1="8.000" y1="32.000" x2="3.000" y2="32.000" stroke="#D4A574" stroke-width="1.4249999999999998" stroke-linecap="round" opacity="0.95"/>
<circle cx="32" cy="4.6" r="3.2" fill="#D4A574" opacity="0.12"/>
<circle cx="32" cy="4.6" r="1.8" fill="#D4A574" opacity="0.30"/>
<circle cx="32" cy="4.6" r="1.05" fill="#F5F0E6"/>
<path d="M 54.772 47.945 C 58.772 49.145, 63.272 54.745, 54.500 47.500" fill="none" stroke="#D4A574" stroke-width="1.4249999999999998" stroke-linecap="round" opacity="0.95"/>
<circle cx="54.5" cy="47.5" r="1.15" fill="#F5F0E6"/>
<circle cx="32" cy="32" r="1.4" fill="#D4A574"/>
<circle cx="32" cy="32" r="0.55" fill="#F5F0E6"/>
</g>
<g transform="translate(14.000,198.640) scale(0.068571,-0.068571)"><path d="M524 -184Q467 -184 430.0 -162.0Q393 -140 357 -87L302 -4Q246 8 200.0 37.0Q154 66 121.0 110.5Q88 155 70.0 215.0Q52 275 52 349Q52 436 77.0 503.5Q102 571 146.0 616.5Q190 662 250.0 686.0Q310 710 380 710Q450 710 510.0 686.0Q570 662 614.0 616.5Q658 571 683.0 503.5Q708 436 708 349Q708 275 690.0 216.0Q672 157 640.0 112.5Q608 68 562.5 39.0Q517 10 463 -3L530 -85Q547 -107 570.0 -114.5Q593 -122 622 -122H639V-184ZM380 62Q411 62 438.0 72.0Q465 82 485.5 103.0Q506 124 518.0 157.0Q530 190 530 236V462Q530 508 518.0 541.0Q506 574 485.5 595.0Q465 616 438.0 626.0Q411 636 380 636Q349 636 322.0 626.0Q295 616 274.5 595.0Q254 574 242.0 541.0Q230 508 230 462V236Q230 190 242.0 157.0Q254 124 274.5 103.0Q295 82 322.0 72.0Q349 62 380 62Z" fill="#F5F0E6"/></g>
<g transform="translate(66.114,198.640) scale(0.068571,-0.068571)"><path d="M257 -12Q161 -12 121.5 36.5Q82 85 82 182V423L22 436V493L234 536V187Q234 134 252.5 111.5Q271 89 315 89Q332 89 349.0 93.5Q366 98 379.0 107.5Q392 117 400.0 131.5Q408 146 408 167V423L348 436V493L560 536V101L620 88V31L411 -12V87H406Q392 47 356.0 17.5Q320 -12 257 -12Z" fill="#F5F0E6"/></g>
<g transform="translate(110.480,198.640) scale(0.068571,-0.068571)"><path d="M294 -12Q232 -12 184.5 8.5Q137 29 104.5 65.5Q72 102 55.0 152.5Q38 203 38 263Q38 326 55.5 377.0Q73 428 105.5 463.0Q138 498 183.5 517.0Q229 536 285 536Q341 536 386.0 519.0Q431 502 462.5 470.5Q494 439 511.0 394.0Q528 349 528 294V260H199V220Q199 153 234.0 119.0Q269 85 327 85Q381 85 414.0 109.5Q447 134 461 169L516 136Q507 111 490.0 85.0Q473 59 446.0 37.5Q419 16 381.0 2.0Q343 -12 294 -12ZM199 323H371V337Q371 409 348.0 438.0Q325 467 285 467Q245 467 222.0 438.0Q199 409 199 337Z" fill="#F5F0E6"/></g>
<g transform="translate(149.291,198.640) scale(0.068571,-0.068571)"><path d="M264 -12Q209 -12 180.0 8.5Q151 29 143 54H139V0H41V156H139V140Q139 101 163.0 81.0Q187 61 241 61Q289 61 311.0 76.0Q333 91 333 122Q333 147 317.0 160.5Q301 174 264 185L217 198Q130 222 88.5 262.5Q47 303 47 372Q47 451 99.0 493.5Q151 536 236 536Q289 536 317.0 516.0Q345 496 353 471H357V524H455V368H357V386Q357 424 333.5 443.5Q310 463 257 463Q181 463 181 408Q181 382 196.5 366.0Q212 350 253 340L296 329Q338 318 370.0 304.0Q402 290 423.5 270.5Q445 251 456.0 223.5Q467 196 467 158Q467 75 411.0 31.5Q355 -12 264 -12Z" fill="#F5F0E6"/></g>
<g transform="translate(184.126,198.640) scale(0.068571,-0.068571)"><path d="M207 -10Q147 -10 118.5 16.5Q90 43 90 95V454H20V524H47Q80 524 95.5 538.5Q111 553 125 582L167 669H242V524H357V454H242V68H357V9Q341 2 300.0 -4.0Q259 -10 207 -10Z" fill="#F5F0E6"/></g>
<circle cx="213.817" cy="177.040" r="1.920" fill="#D4A574" opacity="0.95"/>
<g transform="translate(223.829,198.640) scale(0.068571,-0.068571)"><path d="M319 -12Q289 -12 264.5 -5.5Q240 1 221.5 11.5Q203 22 190.5 34.5Q178 47 172 58H168V0H52V204H168V161Q168 107 206.0 84.5Q244 62 310 62Q379 62 412.5 90.0Q446 118 446 163Q446 185 440.5 201.0Q435 217 422.0 228.5Q409 240 387.0 248.5Q365 257 332 264L287 274Q236 284 193.5 301.5Q151 319 121.0 347.0Q91 375 74.5 414.0Q58 453 58 506Q58 551 74.0 588.5Q90 626 120.0 653.0Q150 680 194.5 695.0Q239 710 296 710Q327 710 351.5 703.5Q376 697 394.5 687.0Q413 677 425.0 664.5Q437 652 443 641H447V698H563V494H447V538Q447 591 410.0 613.5Q373 636 314 636Q246 636 214.5 607.5Q183 579 183 539Q183 516 190.0 500.0Q197 484 212.5 472.0Q228 460 253.0 451.5Q278 443 314 435L356 427Q408 416 449.5 398.5Q491 381 519.5 354.0Q548 327 563.0 290.5Q578 254 578 206Q578 159 560.0 119.0Q542 79 508.5 50.0Q475 21 427.0 4.5Q379 -12 319 -12Z" fill="#F5F0E6"/></g>
<g transform="translate(266.960,198.640) scale(0.068571,-0.068571)"><path d="M207 -10Q147 -10 118.5 16.5Q90 43 90 95V454H20V524H47Q80 524 95.5 538.5Q111 553 125 582L167 669H242V524H357V454H242V68H357V9Q341 2 300.0 -4.0Q259 -10 207 -10Z" fill="#F5F0E6"/></g>
<g transform="translate(292.537,198.640) scale(0.068571,-0.068571)"><path d="M257 -12Q161 -12 121.5 36.5Q82 85 82 182V423L22 436V493L234 536V187Q234 134 252.5 111.5Q271 89 315 89Q332 89 349.0 93.5Q366 98 379.0 107.5Q392 117 400.0 131.5Q408 146 408 167V423L348 436V493L560 536V101L620 88V31L411 -12V87H406Q392 47 356.0 17.5Q320 -12 257 -12Z" fill="#F5F0E6"/></g>
<g transform="translate(336.903,198.640) scale(0.068571,-0.068571)"><path d="M250 -12Q202 -12 163.5 7.5Q125 27 98.0 63.0Q71 99 56.5 149.5Q42 200 42 262Q42 324 56.5 374.5Q71 425 98.0 461.0Q125 497 163.5 516.5Q202 536 250 536Q278 536 300.5 528.5Q323 521 340.5 509.0Q358 497 370.0 481.0Q382 465 389 448H394V647L334 660V717L546 760V101L606 88V31L394 -12V78H389Q375 43 339.5 15.5Q304 -12 250 -12ZM301 80Q341 80 367.5 105.0Q394 130 394 172V353Q394 395 367.5 420.0Q341 445 301 445Q259 445 231.0 416.0Q203 387 203 331V194Q203 138 231.0 109.0Q259 80 301 80Z" fill="#F5F0E6"/></g>
<g transform="translate(380.240,198.640) scale(0.068571,-0.068571)"><path d="M125 -212Q65 -212 32.0 -182.5Q-1 -153 -1 -112Q-1 -76 19.5 -56.0Q40 -36 76 -36Q111 -36 130.0 -58.0Q149 -80 149 -109Q149 -122 145.0 -133.5Q141 -145 136 -152L138 -158Q142 -159 149 -159Q175 -159 197.0 -131.0Q219 -103 239 -51L249 -25L59 458H11V524H274V458H218L323 155H329L435 458H379V524H563V458H516L306 -54Q295 -81 280.0 -109.5Q265 -138 244.0 -160.5Q223 -183 194.0 -197.5Q165 -212 125 -212Z" fill="#F5F0E6"/></g>
</svg>